<?xml version="1.0" standalone="no"?>
<!DOCTYPE svg PUBLIC "-//W3C//DTD SVG 20010904//EN"
 "http://www.w3.org/TR/2001/REC-SVG-20010904/DTD/svg10.dtd">
<svg version="1.0" xmlns="http://www.w3.org/2000/svg"
 width="552.000000pt" height="564.000000pt" viewBox="0 0 552.000000 564.000000"
 preserveAspectRatio="xMidYMid meet">
<metadata>
Created by potrace 1.15, written by Peter Selinger 2001-2017
</metadata>
<g transform="translate(0.000000,564.000000) scale(0.100000,-0.100000)"
fill="#000000" stroke="none">
<path d="M2235 5629 c-526 -77 -992 -447 -1189 -945 -19 -50 -46 -130 -59
-179 l-23 -88 -90 -18 c-214 -44 -392 -138 -551 -292 -143 -139 -239 -302
-290 -495 -23 -86 -27 -117 -27 -267 -1 -148 2 -182 23 -259 102 -388 397
-686 775 -785 145 -38 264 -42 1116 -39 797 3 816 3 850 23 49 28 83 97 77
154 -5 47 -27 83 -71 115 -27 21 -38 21 -924 26 l-897 6 -75 22 c-219 68 -390
211 -485 407 -57 118 -76 200 -76 327 1 341 224 631 566 735 47 14 93 18 205
18 132 -1 152 -3 225 -28 44 -16 120 -51 168 -79 107 -61 145 -68 207 -36 62
32 95 97 85 166 -6 38 -15 55 -51 89 -56 54 -238 144 -350 174 -46 12 -84 25
-84 30 0 4 14 47 31 96 159 453 551 762 1033 815 337 36 705 -95 955 -342 144
-141 241 -298 305 -490 45 -138 53 -185 31 -194 -49 -18 -145 -93 -164 -126
-54 -97 5 -219 113 -235 48 -8 78 4 191 70 150 88 363 118 538 76 285 -68 501
-280 577 -566 30 -114 75 -155 167 -155 89 0 153 63 153 150 0 100 -80 308
-169 439 -91 134 -234 261 -383 341 -168 90 -344 130 -574 130 l-132 0 -7 38
c-13 72 -68 228 -111 319 -213 447 -634 763 -1128 848 -97 16 -378 19 -481 4z"/>
<path d="M3615 3145 c-103 -36 -153 -158 -142 -349 3 -56 13 -123 23 -150 37
-105 131 -157 245 -136 103 20 151 86 171 234 20 156 -21 325 -90 375 -57 40
-138 50 -207 26z m127 -135 c39 -53 41 -298 3 -356 -8 -13 -27 -27 -41 -30
-39 -10 -71 28 -85 101 -12 65 -7 214 9 256 24 62 78 76 114 29z"/>
<path d="M5147 3148 c-52 -14 -101 -66 -123 -130 -15 -42 -19 -82 -19 -193 1
-125 3 -146 24 -193 30 -68 76 -107 140 -121 107 -23 191 14 236 104 28 55 30
70 34 185 2 72 -2 146 -8 176 -15 67 -55 127 -103 154 -45 25 -127 34 -181 18z
m109 -123 c34 -23 47 -91 42 -217 -5 -151 -34 -203 -98 -183 -41 13 -55 60
-55 195 0 138 6 171 35 200 24 24 48 25 76 5z"/>
<path d="M3100 3074 c-52 -41 -99 -79 -104 -84 -8 -8 50 -90 64 -90 4 0 30 18
59 41 l51 41 0 -236 0 -236 70 0 70 0 0 320 0 320 -57 0 c-57 0 -60 -1 -153
-76z"/>
<path d="M4622 3069 c-56 -44 -102 -83 -102 -87 0 -4 15 -25 34 -47 l34 -40
53 42 54 42 3 -234 2 -235 70 0 70 0 0 320 0 320 -58 0 c-57 0 -59 -1 -160
-81z"/>
<path d="M4590 2188 c-82 -42 -109 -106 -117 -273 -9 -180 33 -296 120 -336
50 -22 143 -25 190 -5 46 19 94 78 112 138 20 69 20 266 0 335 -32 109 -100
163 -205 163 -38 0 -70 -7 -100 -22z m154 -131 c19 -26 21 -42 21 -165 0 -152
-10 -192 -52 -211 -23 -10 -31 -9 -52 7 -34 25 -49 85 -50 192 -1 95 9 148 34
186 22 34 70 30 99 -9z"/>
<path d="M3091 2120 c-111 -88 -108 -82 -57 -145 l25 -29 50 42 c27 23 52 42
55 42 3 0 6 -103 6 -230 l0 -230 70 0 70 0 0 315 0 315 -59 0 c-58 0 -59 -1
-160 -80z"/>
<path d="M3601 2130 c-125 -102 -119 -91 -81 -139 19 -23 36 -41 39 -41 4 0
30 21 59 46 l52 46 0 -236 0 -236 70 0 70 0 0 315 0 315 -62 -1 c-63 0 -64 -1
-147 -69z"/>
<path d="M4101 2130 c-125 -102 -119 -91 -81 -139 19 -23 36 -41 39 -41 4 0
30 21 59 46 l52 46 0 -236 0 -236 70 0 70 0 0 315 0 315 -62 -1 c-63 0 -64 -1
-147 -69z"/>
<path d="M4965 1361 c-60 -27 -89 -100 -90 -226 0 -106 21 -171 66 -210 25
-21 41 -25 90 -25 35 0 73 7 90 16 92 47 108 314 25 410 -31 36 -37 38 -97 41
-35 1 -73 -1 -84 -6z m116 -119 c6 -15 9 -71 7 -124 -3 -84 -6 -100 -25 -119
-20 -21 -23 -21 -46 -6 -28 18 -37 53 -37 148 0 73 12 117 37 136 21 16 51 0
64 -35z"/>
<path d="M5326 1310 c-42 -33 -76 -64 -76 -68 0 -4 12 -20 26 -36 l25 -28 40
31 39 32 0 -171 0 -170 55 0 55 0 0 235 0 235 -44 0 c-38 0 -53 -7 -120 -60z"/>
<path d="M3037 1342 c-50 -31 -72 -93 -72 -207 0 -119 14 -163 62 -206 34 -30
39 -31 106 -27 63 3 72 7 98 36 39 44 52 100 47 212 -5 109 -29 170 -78 195
-39 20 -128 19 -163 -3z m103 -72 c50 -27 54 -239 5 -280 -20 -16 -50 -4 -63
26 -15 32 -15 199 -1 227 11 19 28 36 37 37 2 0 12 -5 22 -10z"/>
<path d="M3402 1299 l-72 -61 21 -29 c25 -36 31 -36 75 -3 l34 26 0 -166 0
-166 50 0 50 0 0 230 0 230 -42 0 c-37 -1 -52 -9 -116 -61z"/>
<path d="M3747 1342 c-15 -9 -38 -37 -50 -62 -18 -38 -22 -61 -21 -150 1 -119
14 -162 64 -204 27 -22 41 -26 97 -26 60 0 67 2 98 33 44 44 58 99 53 216 -4
110 -24 162 -72 192 -40 25 -130 25 -169 1z m103 -72 c50 -27 54 -239 5 -280
-8 -6 -23 -9 -33 -5 -33 10 -44 56 -40 158 2 76 7 99 22 116 22 24 21 24 46
11z"/>
<path d="M4112 1299 l-72 -61 21 -29 c25 -36 31 -36 75 -3 l34 26 0 -166 0
-166 50 0 50 0 0 230 0 230 -42 0 c-37 -1 -52 -9 -116 -61z"/>
<path d="M4584 846 c-70 -31 -100 -115 -91 -252 8 -143 66 -210 170 -201 55 5
93 29 122 78 17 29 20 52 20 149 0 127 -15 175 -67 213 -34 25 -113 32 -154
13z m103 -103 c26 -39 26 -197 0 -236 -22 -34 -52 -34 -74 0 -13 20 -18 48
-18 118 0 70 5 98 18 118 22 34 52 34 74 0z"/>
<path d="M5294 846 c-69 -31 -101 -121 -91 -258 9 -137 68 -204 170 -195 55 5
93 29 122 78 17 29 20 52 20 149 0 127 -15 175 -67 213 -34 25 -113 32 -154
13z m103 -103 c26 -39 26 -197 0 -236 -22 -34 -52 -35 -74 -1 -24 37 -24 201
0 238 22 34 52 33 74 -1z"/>
<path d="M4930 795 c-35 -29 -65 -57 -67 -62 -1 -4 8 -21 21 -37 l24 -29 41
32 41 33 0 -166 0 -166 50 0 50 0 0 225 0 225 -47 -1 c-43 0 -55 -6 -113 -54z"/>
<path d="M3003 712 c-32 -25 -43 -63 -43 -150 0 -98 20 -141 73 -161 53 -20
111 -2 133 41 38 73 26 217 -21 264 -30 30 -108 33 -142 6z"/>
<path d="M3275 689 c-27 -23 -52 -42 -54 -44 -2 -2 6 -15 17 -29 l20 -26 26
21 26 20 0 -115 0 -116 40 0 40 0 0 165 0 165 -32 0 c-23 -1 -48 -13 -83 -41z"/>
<path d="M3897 319 c-34 -20 -50 -70 -50 -154 0 -126 28 -165 121 -165 38 0
53 5 71 24 56 60 53 225 -4 282 -19 19 -35 24 -72 24 -26 0 -56 -5 -66 -11z"/>
<path d="M4163 288 c-29 -22 -53 -44 -53 -48 0 -4 9 -15 20 -25 18 -17 21 -17
45 -1 l25 16 0 -115 0 -115 40 0 40 0 0 165 0 165 -32 0 c-23 0 -49 -13 -85
-42z"/>
</g>
</svg>
